<?xml version="1.0" encoding="UTF-8"?>
<svg id="_Слой_2" data-name="Слой 2" xmlns="http://www.w3.org/2000/svg" viewBox="0 0 156 156">
  <defs>
    <style>
      .cls-1 {
        fill: #fff;
      }
    </style>
  </defs>
  <g id="_Слой_1-2" data-name="Слой 1">
    <rect class="cls-1" x="0" y="70.5" width="40" height="15" rx="7.5" ry="7.5"/>
    <rect class="cls-1" x="116" y="70.5" width="40" height="15" rx="7.5" ry="7.5"/>
    <rect class="cls-1" x="58" y="12.5" width="40" height="15" rx="7.5" ry="7.5" transform="translate(98 -58) rotate(90)"/>
    <rect class="cls-1" x="58" y="128.5" width="40" height="15" rx="7.5" ry="7.5" transform="translate(214 58) rotate(90)"/>
    <rect class="cls-1" x="16.99" y="29.49" width="40" height="15" rx="7.5" ry="7.5" transform="translate(36.99 -15.32) rotate(45)"/>
    <rect class="cls-1" x="99.01" y="111.51" width="40" height="15" rx="7.5" ry="7.5" transform="translate(119.01 -49.3) rotate(45)"/>
    <rect class="cls-1" x="99.01" y="29.49" width="40" height="15" rx="7.5" ry="7.5" transform="translate(229.32 -21.01) rotate(135)"/>
    <rect class="cls-1" x="16.99" y="111.51" width="40" height="15" rx="7.5" ry="7.5" transform="translate(147.3 177.01) rotate(135)"/>
    <circle class="cls-1" cx="78" cy="77.5" r="35"/>
  </g>
</svg>