<?xml version="1.0" encoding="UTF-8"?>
<svg id="_Слой_2" data-name="Слой 2" xmlns="http://www.w3.org/2000/svg" viewBox="0 0 129.37 131.1">
  <defs>
    <style>
      .cls-1 {
        fill: #fff;
      }
    </style>
  </defs>
  <g id="_Слой_1-2" data-name="Слой 1">
    <path class="cls-1" d="m98.09.5c-2.38-1.62-5.37,1.01-4.01,3.56,4.93,9.25,7.71,19.71,7.71,30.79,0,37.62-32.01,68.11-71.49,68.11-9.38,0-18.34-1.72-26.55-4.86-2.57-.98-4.84,2.02-3.19,4.23,12.94,17.33,33.54,28.61,56.8,28.78,39.18.28,71.56-31.47,72.01-70.65.29-24.92-12.18-46.94-31.27-59.95Z"/>
    <path class="cls-1" d="m67.97,13.4l3.98,2.03c.42.21.93.13,1.26-.2l3.16-3.16c.74-.74,2.01-.1,1.84.94l-.7,4.41c-.07.47.16.92.58,1.14l3.98,2.03c.94.48.72,1.88-.32,2.04l-4.41.7c-.47.07-.83.44-.9.9l-.7,4.41c-.16,1.04-1.56,1.26-2.04.32l-2.03-3.98c-.21-.42-.67-.65-1.14-.58l-4.41.7c-1.04.16-1.68-1.1-.94-1.84l3.16-3.16c.33-.33.41-.84.2-1.26l-2.03-3.98c-.48-.94.52-1.94,1.46-1.46Z"/>
    <path class="cls-1" d="m20.12,63.5l3.98,2.03c.42.21.93.13,1.26-.2l3.16-3.16c.74-.74,2.01-.1,1.84.94l-.7,4.41c-.07.47.16.92.58,1.14l3.98,2.03c.94.48.72,1.88-.32,2.04l-4.41.7c-.47.07-.83.44-.9.9l-.7,4.41c-.16,1.04-1.56,1.26-2.04.32l-2.03-3.98c-.21-.42-.67-.65-1.14-.58l-4.41.7c-1.04.16-1.68-1.1-.94-1.84l3.16-3.16c.33-.33.41-.84.2-1.26l-2.03-3.98c-.48-.94.52-1.94,1.46-1.46Z"/>
    <path class="cls-1" d="m70.46,64.74l1.38,4.25c.15.45.56.75,1.03.75h4.47c1.05,0,1.49,1.35.64,1.97l-3.61,2.63c-.38.28-.54.77-.39,1.22l1.38,4.25c.33,1-.82,1.83-1.67,1.22l-3.61-2.63c-.38-.28-.9-.28-1.28,0l-3.61,2.63c-.85.62-2-.21-1.67-1.22l1.38-4.25c.15-.45-.01-.94-.39-1.22l-3.61-2.63c-.85-.62-.41-1.97.64-1.97h4.47c.47,0,.89-.3,1.03-.75l1.38-4.25c.33-1,1.74-1,2.07,0Z"/>
  </g>
</svg>