<?xml version="1.0" encoding="UTF-8"?>
<svg id="_Слой_2" data-name="Слой 2" xmlns="http://www.w3.org/2000/svg" viewBox="0 0 1240 1240">
  <defs>
    <style>
      .cls-1, .cls-2, .cls-3 {
        fill: #009245;
      }

      .cls-4, .cls-5, .cls-6, .cls-7, .cls-8, .cls-2, .cls-9, .cls-3 {
        stroke: #000;
        stroke-miterlimit: 10;
      }

      .cls-4, .cls-5, .cls-6, .cls-7, .cls-2, .cls-9, .cls-3 {
        stroke-width: 10px;
      }

      .cls-4, .cls-6, .cls-7, .cls-8, .cls-3 {
        stroke-linecap: square;
      }

      .cls-4, .cls-8 {
        fill: none;
      }

      .cls-5 {
        fill: #2f0f0a;
      }

      .cls-6 {
        fill: #1d1d1b;
      }

      .cls-7 {
        fill: #fff;
      }

      .cls-8 {
        stroke-width: 22.5px;
      }

      .cls-10 {
        fill: #006837;
      }

      .cls-11 {
        opacity: .44;
      }

      .cls-12, .cls-9 {
        fill: #ae0f0a;
      }

      .cls-13 {
        fill: #1d2049;
      }

      .cls-14 {
        fill: #e1ffff;
      }
    </style>
  </defs>
  <g id="_Слой_1-2" data-name="Слой 1">
    <rect class="cls-13" width="1240" height="1240"/>
    <path class="cls-11" d="m623.5,880c-122.62,0-223.86,23.35-239.11,53.57-18.69-4.12-42.05-6.57-67.39-6.57-61.3,0-111,14.33-111,32s49.7,32,111,32c43.74,0,81.57-7.29,99.65-17.89,42.14,17.91,119,29.89,206.85,29.89,133.15,0,241.1-27.53,241.1-61.5s-107.94-61.5-241.1-61.5Z"/>
    <g>
      <polyline class="cls-8" points="281.63 495.26 283.41 488 287.5 473.55 292.14 459.49 297.39 445.66 303.19 432.13 309.52 419 316.4 406.1 323.74 393.58 331.55 381.45 339.89 369.7 348.7 358.27 357.97 347.3 367.63 336.63 377.67 326.44 388.18 316.7 399.07 307.35 410.28 298.54 421.87 290.12 433.77 282.16 446.05 274.75 458.57 267.79 471.47 261.38 484.61 255.51 497.97 250.1 511.57 245.31 525.48 241.06 539.54 237.35 553.84 234.26 568.29 231.79 582.89 229.93 597.72 228.7 612.64 228.08 620.13 228 627.62 228.08 642.54 228.77 657.22 230.01 671.82 231.94 686.27 234.49 700.49 237.58 714.47 241.29 728.3 245.54 741.9 250.41 755.19 255.74 768.32 261.69 781.07 268.1 793.59 274.98 805.8 282.47 817.7 290.35 829.21 298.77 840.41 307.58 851.23 316.93 861.66 326.67 871.71 336.87 881.36 347.45 890.56 358.42 899.29 369.78 907.63 381.53 915.44 393.66 922.78 406.1 929.58 418.92 935.91 432.06 941.71 445.5 946.96 459.25 951.6 473.32 955.69 487.69 957.47 494.95"/>
      <polygon class="cls-5" points="613.02 459.02 629.17 459.25 629.25 456.16 630.64 439.55 632.18 427.65 633.19 422.79 636.36 409.34 640.68 393.35 642.85 387.24 645.4 381.29 648.49 375.58 650.34 372.87 655.21 365.92 662.63 356.72 667.65 351.24 672.83 346.22 678.31 341.58 684.03 337.41 690.13 333.54 693.3 331.69 697.4 329.6 705.43 326.51 713.23 323.89 720.73 320.8 724.28 318.63 724.59 318.32 725.06 316.39 725.13 311.52 724.28 305.42 723.12 301.4 721.5 297.77 719.34 295.07 717.95 294.22 716.33 293.44 713.54 292.59 710.92 292.67 708.29 293.52 703.81 295.92 695.46 301.17 689.44 304.42 685.42 306.5 677.46 311.14 669.81 316.24 662.32 321.72 655.21 327.59 648.49 333.93 642.15 340.58 636.36 347.61 633.65 351.24 628.4 358.66 621.29 370.09 617.12 378.05 613.49 386.32 610.47 394.89 608.39 403.93 607.15 413.36 606.92 418.3 606.84 423.17 607.23 431.98 608.08 439.55 609.16 445.96 611.01 453.38 612.87 458.64 613.02 459.02 613.02 459.02"/>
      <polygon class="cls-2" points="568.34 410.81 570.58 414.05 575.68 420.54 581.39 426.65 587.5 432.06 593.76 436.54 599.86 439.78 604.19 441.17 606.89 441.56 609.44 441.56 611.84 440.94 612.92 440.48 613.92 439.86 615.7 438.24 617.25 436.15 618.48 433.68 619.8 429.35 620.65 422.48 620.57 414.83 619.64 406.71 617.94 398.52 615.55 390.64 614.16 386.93 613.07 384.38 610.6 379.36 606.35 372.1 599.71 363.14 592.37 355.33 584.87 348.92 579.31 345.37 575.68 343.51 572.28 342.2 569.03 341.43 566.1 341.27 563.39 341.81 562.23 342.28 561.07 342.97 559.14 344.82 557.52 347.37 556.21 350.39 555.28 354.02 554.66 357.96 554.35 364.68 555.12 374.57 557.29 385.08 560.69 395.74 564.16 403.47 566.87 408.41 568.34 410.81 568.34 410.81"/>
      <polygon class="cls-9" points="620.9 448 617.74 445.6 607.3 438.26 596.41 431.39 587.99 426.6 578.48 421.65 568.05 416.86 556.77 412.23 544.72 408.05 531.82 404.42 518.22 401.41 503.92 399.32 489.01 398.24 473.48 398.24 457.56 399.63 449.37 400.94 441.8 402.34 427.28 406.04 413.37 410.68 400.08 416.24 387.33 422.66 375.2 429.84 363.76 437.72 353.03 446.14 342.9 455.11 333.48 464.53 324.75 474.27 316.71 484.31 309.45 494.51 302.88 504.87 297.09 515.3 292.06 525.65 289.9 530.75 288.28 534.92 285.26 543.27 282.64 551.84 280.47 560.5 278.62 569.23 277.23 578.11 276.15 587 275.45 596.04 274.99 609.79 275.68 628.26 277.69 646.88 280.86 665.65 285.26 684.43 290.67 703.21 297.24 721.9 304.73 740.37 313.08 758.6 322.35 776.53 332.4 794.07 343.06 811.15 354.49 827.76 366.39 843.67 378.91 858.97 391.81 873.5 405.1 887.17 418.78 900 432.69 911.9 446.75 922.79 460.89 932.53 475.18 941.1 489.4 948.44 503.61 954.47 517.6 959.11 528.03 961.66 534.91 962.89 541.63 963.67 548.35 964.13 555 964.21 561.49 963.82 564.73 963.43 569.14 962.89 577.48 961.04 585.44 958.64 592.86 955.71 599.81 952.39 606.22 948.75 615.03 943.04 620.13 939.17 625.31 942.88 634.19 948.44 640.76 952 647.79 955.24 655.36 958.1 663.4 960.42 671.9 962.12 676.3 962.74 679.55 963.05 686.19 963.36 692.84 963.28 699.64 962.74 709.91 961.35 723.82 958.1 737.96 953.31 752.18 947.29 766.47 939.87 780.76 931.21 794.98 921.48 809.04 910.59 822.87 898.69 836.47 885.86 849.76 872.11 862.59 857.58 875.03 842.36 886.93 826.44 898.21 809.91 908.87 792.91 918.84 775.37 927.95 757.52 936.3 739.37 943.64 720.9 950.13 702.36 955.46 683.66 959.79 664.88 962.88 646.26 964.81 627.64 965.43 609.25 964.66 591.17 963.11 577.8 961.72 569 959.86 560.27 957.62 551.69 955.07 543.19 952.06 534.85 950.36 530.75 948.2 525.65 943.18 515.3 937.38 504.94 930.81 494.67 923.47 484.47 915.44 474.5 906.71 464.77 897.28 455.42 887.16 446.53 876.34 438.11 864.91 430.38 852.85 423.2 840.1 416.86 826.81 411.38 812.91 406.74 798.46 403.11 790.96 401.72 782.85 400.4 767.09 399.09 751.79 399.01 737.03 400.1 722.89 402.18 709.45 405.04 696.7 408.67 684.72 412.77 673.52 417.25 663.24 422.04 649.34 429.22 634.58 438.26 624.15 445.53 620.9 448 620.9 448"/>
      <line class="cls-4" x1="275.06" y1="603.43" x2="965.35" y2="603.43"/>
      <polygon class="cls-7" points="542.09 685.64 421.02 685.64 418 685.56 412.29 684.4 406.96 682.32 402.24 679.23 398.15 675.44 394.75 670.88 392.28 665.71 390.81 660.07 390.5 657.13 387.72 615.33 384.94 573.45 384.86 570.21 385.79 563.95 387.87 558.08 391.12 552.9 395.29 548.42 400.31 544.86 405.95 542.31 412.13 541 415.46 540.92 552.6 540.92 554.3 540.92 557.62 541.31 562.41 542.47 568.29 545.17 573.38 548.96 577.56 553.67 580.65 559.16 582.58 565.34 583.12 570.21 583.12 573.61 582.89 575.31 577.63 617.11 572.38 658.91 571.92 661.77 570.22 667.02 567.67 671.89 564.27 676.14 560.17 679.69 555.54 682.55 550.44 684.56 544.95 685.56 542.09 685.64 542.09 685.64"/>
      <polygon class="cls-7" points="815.22 685.64 694.15 685.64 691.14 685.56 685.42 684.4 680.17 682.32 675.37 679.23 671.28 675.44 667.96 670.88 665.41 665.71 663.94 660.07 663.63 657.13 660.85 615.33 658.07 573.45 657.99 570.21 658.92 563.95 661.08 558.08 664.25 552.9 668.42 548.42 673.44 544.86 679.08 542.31 685.34 541 688.59 540.92 825.73 540.92 827.43 540.92 830.83 541.31 835.62 542.47 841.42 545.17 846.52 548.96 850.69 553.67 853.78 559.16 855.79 565.34 856.33 570.21 856.25 573.61 856.1 575.31 850.84 617.11 845.51 658.91 845.13 661.77 843.43 667.02 840.8 671.89 837.4 676.14 833.38 679.69 828.75 682.55 823.57 684.56 818.08 685.56 815.22 685.64 815.22 685.64"/>
      <polygon class="cls-14" points="407.57 587.59 407.5 587.51 406.8 586.74 405.87 585.04 405.49 583.19 405.57 581.26 405.87 580.25 407.03 577.24 410.05 572.06 412.83 568.51 414.53 566.73 416.23 565.18 419.55 562.71 424.42 560.01 427.2 559 428.13 558.69 430.06 558.62 431.99 559 433.61 559.93 434.39 560.63 434.46 560.63 434.46 560.7 435.08 561.32 435.93 562.71 436.55 564.95 436.16 568.04 434.93 569.98 433.77 571.13 433.07 571.6 431.22 572.68 427.43 575.46 425.5 577.16 423.26 579.4 419.78 583.96 418.55 586.12 418.08 586.82 416.92 587.98 414.91 589.21 411.9 589.68 409.58 589.06 408.19 588.21 407.57 587.59 407.57 587.59"/>
      <polygon class="cls-14" points="548.35 635.88 548.43 636.04 549.12 636.73 550.05 638.43 550.44 640.36 550.36 642.3 550.05 643.22 548.89 646.24 545.88 651.49 543.1 655.04 541.32 656.82 539.7 658.29 536.37 660.76 531.51 663.47 528.73 664.55 527.8 664.86 525.87 664.93 523.94 664.55 522.24 663.54 521.54 662.92 521.39 662.85 520.84 662.23 519.99 660.84 519.38 658.6 519.76 655.51 520.92 653.5 522.08 652.42 522.85 651.95 524.71 650.87 528.49 648.09 530.43 646.31 532.67 644.07 536.07 639.59 537.38 637.43 537.84 636.73 539 635.5 541.01 634.26 544.02 633.87 546.34 634.49 547.66 635.34 548.35 635.88 548.35 635.88"/>
      <polygon class="cls-14" points="679.7 587.59 679.62 587.51 678.93 586.74 678 585.04 677.62 583.19 677.69 581.26 678 580.25 679.16 577.24 682.17 572.06 684.96 568.51 686.73 566.73 688.36 565.18 691.68 562.71 696.55 560.01 699.33 559 700.25 558.69 702.26 558.62 704.12 559 705.82 559.93 706.51 560.63 706.59 560.63 706.67 560.7 707.21 561.32 708.06 562.71 708.68 564.95 708.29 568.04 707.13 569.98 705.97 571.13 705.2 571.6 703.34 572.68 699.56 575.46 697.63 577.16 695.39 579.4 691.99 583.96 690.67 586.12 690.21 586.82 689.05 587.98 687.04 589.21 684.03 589.68 681.79 589.06 680.4 588.21 679.7 587.59 679.7 587.59"/>
      <polygon class="cls-14" points="820.48 635.88 820.56 636.04 821.25 636.73 822.18 638.43 822.56 640.36 822.49 642.3 822.18 643.22 821.02 646.24 818.01 651.49 815.22 655.04 813.52 656.82 811.82 658.29 808.5 660.76 803.63 663.47 800.85 664.55 799.93 664.86 797.99 664.93 796.14 664.55 794.44 663.54 793.67 662.92 793.59 662.85 792.97 662.23 792.12 660.84 791.5 658.6 791.89 655.51 793.13 653.5 794.29 652.42 794.98 651.95 796.84 650.87 800.62 648.09 802.55 646.31 804.79 644.07 808.27 639.59 809.58 637.43 809.97 636.73 811.13 635.5 813.14 634.26 816.15 633.87 818.47 634.49 819.86 635.34 820.48 635.88 820.48 635.88"/>
      <polygon class="cls-12" points="611.94 460.72 619.74 466.67 629.71 460.8 628.4 458.71 613.25 458.71 611.94 460.72 611.94 460.72"/>
      <polygon class="cls-6" points="904.77 490.39 909.1 490.47 917.52 490.86 925.87 491.63 934.06 492.71 942.09 494.18 949.97 496.03 957.7 498.2 965.35 500.75 976.4 505.07 990.38 511.95 1003.6 519.98 1015.8 529.1 1027.01 539.22 1034.66 547.41 1039.37 553.13 1043.85 559.08 1047.95 565.26 1051.81 571.6 1055.29 578.09 1058.38 584.81 1061.16 591.69 1063.55 598.64 1065.64 605.83 1067.26 613.09 1068.5 620.51 1069.35 628 1069.81 635.57 1069.81 639.44 1069.81 643.3 1069.35 650.95 1068.5 658.44 1067.26 665.86 1065.64 673.12 1063.55 680.23 1061.16 687.26 1058.38 694.14 1055.29 700.78 1051.81 707.35 1047.95 713.69 1043.85 719.79 1039.37 725.74 1034.66 731.46 1027.01 739.73 1015.8 749.85 1003.6 758.97 990.38 767 976.4 773.88 965.35 778.2 957.7 780.68 949.97 782.84 942.09 784.69 934.06 786.16 925.87 787.32 917.52 788.09 909.1 788.48 904.77 788.48 904.77 490.39 904.77 490.39"/>
      <polygon class="cls-6" points="334.48 489.1 330.23 489.18 321.81 489.57 313.47 490.34 305.28 491.42 297.24 492.89 289.36 494.74 281.55 496.91 273.98 499.46 262.93 503.78 248.87 510.66 235.74 518.7 223.53 527.81 212.33 537.94 204.68 546.13 199.96 551.84 195.48 557.79 191.39 563.97 187.52 570.31 184.05 576.8 180.96 583.52 178.17 590.4 175.78 597.35 173.69 604.54 172.07 611.8 170.83 619.22 169.98 626.71 169.52 634.29 169.52 638.15 169.52 642.01 169.98 649.66 170.83 657.16 172.07 664.57 173.69 671.84 175.78 678.94 178.17 685.98 180.96 692.85 184.05 699.5 187.52 706.06 191.39 712.4 195.48 718.5 199.96 724.45 204.68 730.17 212.33 738.44 223.53 748.56 235.74 757.68 248.87 765.71 262.93 772.59 273.98 776.92 281.55 779.39 289.36 781.55 297.24 783.41 305.28 784.87 313.47 786.03 321.81 786.81 330.23 787.19 334.48 787.19 334.48 489.1 334.48 489.1"/>
      <g>
        <path class="cls-7" d="m394,724.83v22.98c30.8,0,55.77,26.26,55.77,58.65s-24.97,58.65-55.77,58.65v21.93c41.47-1.39,74.69-37.15,74.69-81.1s-33.22-79.72-74.69-81.1Z"/>
        <path class="cls-7" d="m221.79,643.74h196.33c3.04,0,5.5,2.46,5.5,5.5v299.18c0,10.95-8.89,19.83-19.83,19.83h-167.66c-10.95,0-19.83-8.89-19.83-19.83v-299.18c0-3.04,2.46-5.5,5.5-5.5Z"/>
        <polyline class="cls-4" points="347.08 725.97 345.07 727.13 339.74 730.84 333.63 736.25 329 741.66 326.06 745.83 324.67 748.23 322.66 751.78 319.88 758.66 318.18 764.91 317.25 770.17"/>
        <polygon class="cls-1" points="302.55 767.77 304.01 769.94 307.72 773.8 311.74 776.74 314.52 777.66 316.14 777.66 316.84 777.35 317.53 776.89 318.46 775.58 319.31 772.72 319.23 767.77 318.15 762.52 317.3 760.12 316.53 758.5 314.75 755.33 312.59 752.48 310.27 750 307.88 747.92 305.48 746.45 303.24 745.6 301.39 745.52 300.61 745.75 299.84 746.22 298.84 747.84 298.22 750.16 298.06 752.94 298.3 756.18 298.99 759.51 300.07 762.98 301.62 766.23 302.55 767.77 302.55 767.77"/>
        <polygon class="cls-12" points="317.87 772.95 316.71 772.02 311.92 769.09 306.59 766.77 302.42 765.61 297.86 764.91 292.84 764.91 290.21 765.3 287.81 765.84 283.33 767.31 279.24 769.4 275.53 771.95 272.28 774.8 269.5 777.97 267.11 781.22 265.25 784.62 264.56 786.24 263.55 788.94 262.39 794.58 262.16 800.46 262.78 806.48 264.17 812.51 266.26 818.54 268.96 824.41 272.21 830.05 275.91 835.38 279.93 840.33 284.18 844.73 288.66 848.59 293.22 851.68 297.86 854.08 302.34 855.55 306.74 856.09 308.83 855.93 310.22 855.78 312.77 854.93 316.02 853.31 317.71 852.07 319.49 853.23 322.81 854.85 325.36 855.62 326.83 855.86 328.92 856.01 333.32 855.39 337.88 853.92 342.44 851.53 347.08 848.36 351.48 844.5 355.81 840.09 359.82 835.23 363.46 829.89 366.62 824.25 369.33 818.38 371.41 812.36 372.73 806.33 373.35 800.38 373.11 794.51 371.95 788.94 370.95 786.24 370.26 784.62 368.32 781.22 366.01 777.97 363.15 774.88 359.9 771.95 356.19 769.47 352.18 767.39 347.69 765.92 345.3 765.46 342.67 765.07 337.73 765.07 333.17 765.76 329.07 766.85 323.82 769.09 319.03 772.02 317.87 772.95 317.87 772.95"/>
      </g>
      <g>
        <path class="cls-3" d="m893.65,867.81c-6.6,19.22-72.32,27.56-115.9-3.86-38.13-27.49-43.02-73.69-43.78-82.42,12.99-.42,30.44.3,50.22,5.15,59.25,14.52,116.57,60.41,109.46,81.13Z"/>
        <path class="cls-10" d="m741.73,789.25c-2.5.41,142.91,76.37,145.45,75.97,1.32-.21-35.57-21.14-70.22-39.2-33.08-17.24-73.95-36.99-75.23-36.78Z"/>
        <path class="cls-10" d="m817.43,831.9c-.45-.47-1.13-.54-1.65-.18-23.02,15.88-34.4,24.04-34.17,24.48.24.44,12.1-6.85,35.59-21.87.79-.5.91-1.72.25-2.41l-.02-.02Z"/>
        <path class="cls-10" d="m845.36,846.38c-.45-.35-1.06-.32-1.47.06-18.09,16.92-27.01,25.56-26.74,25.91.26.35,9.71-7.58,28.33-23.81.62-.54.58-1.62-.1-2.14l-.02-.02Z"/>
        <path class="cls-10" d="m789.91,816.09c-.34-.36-.87-.44-1.29-.19-18.71,10.88-27.97,16.48-27.8,16.81.17.33,9.78-4.61,28.83-14.83.64-.34.78-1.23.28-1.77l-.02-.02Z"/>
        <path class="cls-10" d="m764.32,803.05c-.17-.18-.45-.21-.66-.09-9.58,5.29-14.32,8.02-14.23,8.18.09.16,5.01-2.25,14.76-7.22.33-.17.4-.6.14-.86h0Z"/>
        <path class="cls-10" d="m793.2,812.47c.21-.01.41-.17.49-.38,3.26-9.18,4.82-13.78,4.67-13.82-.15-.03-2,4.51-5.56,13.62-.12.31.08.6.39.58h0Z"/>
        <path class="cls-10" d="m820.59,826.96c.26,0,.49-.17.56-.42,3.09-11.13,4.54-16.72,4.35-16.77-.19-.06-2.01,5.42-5.47,16.43-.12.37.16.75.55.76h.01Z"/>
        <path class="cls-10" d="m848.91,841.14c.24.02.45-.13.5-.36,2.2-10.24,3.22-15.4,3.04-15.46-.18-.07-1.55,4.96-4.11,15.08-.09.34.19.71.56.75h.01Z"/>
        <path class="cls-10" d="m766.49,800.02c.15.01.27-.08.3-.22,1.4-6.14,2.05-9.22,1.94-9.26-.11-.04-.97,2.98-2.58,9.04-.05.2.11.43.33.44h0Z"/>
      </g>
      <g>
        <path class="cls-3" d="m867.89,863.94c-28.22-8.02-42.12-31.37-57.95-57.95-10.57-17.76-42.94-72.12-23.07-130.62,6.69-19.69,17.22-33.74,24.36-41.94,13.4-.75,35.99-.25,60.8,9.78,56.78,22.97,78.48,77.04,86.01,95.81,11.13,27.74,21.1,52.6,10.3,78.55-14.95,35.92-62.68,57.09-100.44,46.36Z"/>
        <path class="cls-10" d="m815.1,643.74c-1.93,1.1,110.08,203.23,112.03,202.18,1.02-.55-27.4-56.25-54.09-104.31-25.48-45.88-56.96-98.43-57.95-97.87Z"/>
        <path class="cls-10" d="m853.37,702.61c-.55-.55-.65-1.4-.26-2.07,17.09-29.57,25.88-44.21,26.38-43.93.5.28-7.29,15.49-23.38,45.61-.54,1.01-1.9,1.22-2.71.41l-.03-.03Z"/>
        <path class="cls-10" d="m872.68,728.37c-.55-.55-.65-1.4-.26-2.07,17.09-29.57,25.88-44.21,26.38-43.93.5.28-7.29,15.49-23.38,45.61-.54,1.01-1.9,1.22-2.71.41l-.03-.03Z"/>
        <path class="cls-10" d="m893.7,766.53c-.78-.75-.94-1.96-.38-2.89,23.54-39.09,35.66-58.45,36.35-58.08.69.37-10.07,20.52-32.29,60.45-.74,1.33-2.55,1.61-3.65.55-.01-.01-.02-.02-.04-.03Z"/>
        <path class="cls-10" d="m919.28,818.35c-.68-.65-.81-1.69-.32-2.5,20.29-33.5,30.73-50.09,31.33-49.77.6.32-8.68,17.59-27.84,51.82-.64,1.14-2.19,1.38-3.13.48-.01,0-.02-.02-.03-.03Z"/>
        <path class="cls-10" d="m843.65,707.17c-.19-.75-.87-1.27-1.64-1.28-34.15-.42-51.22-.35-51.24.23-.02.57,17.04,1.64,51.16,3.21,1.14.05,2.02-1.01,1.74-2.12v-.04Z"/>
        <path class="cls-10" d="m855.92,736.93c-.19-.75-.87-1.27-1.64-1.28-34.15-.42-51.22-.35-51.24.23-.02.57,17.04,1.64,51.16,3.21,1.14.05,2.02-1.01,1.74-2.12v-.04Z"/>
        <path class="cls-10" d="m877.98,774.52c-.25-1.07-1.22-1.82-2.31-1.82-45.62.26-68.45.78-68.48,1.56-.04.78,22.78,1.83,68.43,3.14,1.54.04,2.71-1.38,2.36-2.88h0Z"/>
        <path class="cls-10" d="m909.44,822.97c-.21-.92-1.04-1.56-1.98-1.56-39.16.32-58.76.82-58.79,1.49-.03.67,19.56,1.53,58.77,2.56,1.31.03,2.31-1.17,2.01-2.45,0-.01,0-.03,0-.04Z"/>
      </g>
    </g>
  </g>
</svg>